/* XPM */
static char *_b081e76822e44d7da6f6a31858523c4M1jTTeCp3VmIFWXG[] = {
/* columns rows colors chars-per-pixel */
"64 64 2 1 ",
"  c black",
". c white",
/* pixels */
"................................................................",
"................................................................",
"................................................................",
"................................................................",
"................................................................",
"................................................................",
"................................................................",
"...........                                        .............",
"..........                                          ............",
"..........                                          ............",
"..........                                          ............",
"..........                                         .............",
"..........     .................................................",
"..........     .................................................",
"..........     .................................................",
"..........     .................................................",
"..........     .................................................",
"..........     .................................................",
"..........     .................................................",
"..........     .................................................",
"..........     .................................................",
"..........     .................................................",
"..........     .................................................",
"..........     .................................................",
"..........     .................................................",
"..........     .................................................",
"..........     .................................................",
"..........     .................................................",
"..........     .................................................",
"..........                                         .............",
"..........                                          ............",
"..........                                          ............",
"..........                                          ............",
"..........                                         .............",
"..........     .................................................",
"..........     .................................................",
"..........     .................................................",
"..........     .................................................",
"..........     .................................................",
"..........     .................................................",
"..........     .................................................",
"..........     .................................................",
"..........     .................................................",
"..........     .................................................",
"..........     .................................................",
"..........     .................................................",
"..........     .................................................",
"..........     .................................................",
"..........     .................................................",
"..........     .................................................",
"..........     .................................................",
"..........     .................................................",
"..........     .................................................",
"..........                                         .............",
"..........                                          ............",
"..........                                          ............",
"..........                                          ............",
"...........                                        .............",
"................................................................",
"................................................................",
"................................................................",
"................................................................",
"................................................................",
"................................................................"
};
