/* XPM */
static char *bcaaf7e78bc44935dae683872cbed766Be8tFkgvqAZMrRVf[] = {
/* columns rows colors chars-per-pixel */
"64 64 2 1 ",
"  c black",
". c white",
/* pixels */
"................................................................",
"................................................................",
"................................................................",
"................................................................",
"................................................................",
"................................................................",
"................................................................",
"...........   ....................................   ...........",
"..........     ..................................     ..........",
"..........      .................................     ..........",
"..........       ................................     ..........",
"..........       ................................     ..........",
"..........        ...............................     ..........",
"..........         ..............................     ..........",
"..........          .............................     ..........",
"..........           ............................     ..........",
"..........            ...........................     ..........",
"..........     .       ..........................     ..........",
"..........     ..      ..........................     ..........",
"..........     ...      .........................     ..........",
"..........     ....      ........................     ..........",
"..........     ....       .......................     ..........",
"..........     .....       ......................     ..........",
"..........     ......       .....................     ..........",
"..........     .......      .....................     ..........",
"..........     ........      ....................     ..........",
"..........     .........      ...................     ..........",
"..........     ..........      ..................     ..........",
"..........     ..........       .................     ..........",
"..........     ...........       ................     ..........",
"..........     ............       ...............     ..........",
"..........     .............      ...............     ..........",
"..........     ..............      ..............     ..........",
"..........     ...............      .............     ..........",
"..........     ...............       ............     ..........",
"..........     ................       ...........     ..........",
"..........     .................       ..........     ..........",
"..........     ..................       .........     ..........",
"..........     ...................      .........     ..........",
"..........     ....................      ........     ..........",
"..........     .....................      .......     ..........",
"..........     .....................       ......     ..........",
"..........     ......................       .....     ..........",
"..........     .......................       ....     ..........",
"..........     ........................      ....     ..........",
"..........     .........................      ...     ..........",
"..........     ..........................      ..     ..........",
"..........     ..........................       .     ..........",
"..........     ...........................            ..........",
"..........     ............................           ..........",
"..........     .............................          ..........",
"..........     ..............................         ..........",
"..........     ...............................        ..........",
"..........     ................................       ..........",
"..........     ................................       ..........",
"..........     .................................      ..........",
"..........     ..................................     ..........",
"...........   ....................................   ...........",
"................................................................",
"................................................................",
"................................................................",
"................................................................",
"................................................................",
"................................................................"
};
