/* XPM */
static char *cb0c1572262e491df0be1c9b12ba81d3vAIbML5FLFmNkCHM[] = {
/* columns rows colors chars-per-pixel */
"64 64 2 1 ",
"  c black",
". c white",
/* pixels */
"................................................................",
"................................................................",
"................................................................",
".......................            .............................",
"....................                   .........................",
"..................                        ......................",
"................                            ....................",
"...............                               ..................",
"..............          ...........             ................",
".............        ..................          ...............",
"............       ......................        ...............",
"...........       .........................      ...............",
"...........      ............................   ................",
"...........     ................................................",
"..........      ................................................",
"..........     .................................................",
"..........     .................................................",
"..........     .................................................",
"..........     .................................................",
"..........     .................................................",
"..........     .................................................",
"..........      ................................................",
"...........     ................................................",
"...........     ................................................",
"...........      ...............................................",
"............     ...............................................",
"............       .............................................",
".............         ..........................................",
".............             ......................................",
"..............               ...................................",
"...............                  ...............................",
"..................                   ...........................",
"......................                  ........................",
".........................                   ....................",
".............................                  .................",
"................................                ................",
"....................................             ...............",
"........................................         ...............",
"...........................................       ..............",
".............................................     ..............",
".............................................      .............",
"..............................................     .............",
"..............................................     .............",
"..............................................      ............",
"...............................................     ............",
"...............................................     ............",
"...............................................     ............",
"...............................................     ............",
"...............................................     ............",
"...............................................     ............",
"..............................................      ............",
"..............................................     .............",
"..............   ............................      .............",
".............      .........................       .............",
".............        ......................       ..............",
".............          ..................        ...............",
"..............             ...........          ................",
"................                               .................",
"..................                            ..................",
"....................                        ....................",
".......................                   ......................",
"...........................            .........................",
"................................................................",
"................................................................"
};
