/* XPM */
static char *_fd994a9984e44f0d586ecf8b8a1a7a9SK4bH2aHeGvXAt6h[] = {
/* columns rows colors chars-per-pixel */
"64 64 2 1 ",
"  c black",
". c white",
/* pixels */
"................................................................",
"................................................................",
"................................................................",
"................................................................",
"................................................................",
"................................................................",
"................................................................",
"................................................................",
"...   ...................................................   ....",
"..     .................................................     ...",
"..     .................................................     ...",
"..     .................................................     ...",
"..      ...............................................      ...",
"...     ...............................................     ....",
"...     ...............................................     ....",
"...      ..............................................     ....",
"....     .............................................      ....",
"....     .............................................     .....",
"....      ............................................     .....",
".....     ............................................     .....",
".....     ...........................................      .....",
".....     ....................   ....................     ......",
".....      ..................     ...................     ......",
"......     ..................     ...................     ......",
"......     ..................      .................      ......",
"......      .................      .................     .......",
".......     ................        ................     .......",
".......     ................        ................     .......",
".......      ..............         ...............      .......",
"........     ..............          ..............     ........",
"........     ..............          ..............     ........",
"........     .............            .............     ........",
"........      ............     ..     ............     .........",
".........     ............     ..      ...........     .........",
".........     ...........      ...     ...........     .........",
".........      ..........     ....      ..........     .........",
"..........     ..........     .....     .........     ..........",
"..........     .........     ......     .........     ..........",
"..........     .........     ......      ........     ..........",
"...........     .......      .......     ........     ..........",
"...........     .......     ........      ......     ...........",
"...........     .......     .........     ......     ...........",
"...........      .....      .........      .....     ...........",
"............     .....     ...........     .....     ...........",
"............     .....     ...........      ...     ............",
"............      ...      ...........      ...     ............",
".............     ...     .............     ...     ............",
".............     ...     .............      ..     ............",
".............     ..     ...............     .     .............",
"..............     .     ...............           .............",
"..............           ................          .............",
"..............          .................          .............",
"..............          ..................        ..............",
"...............         ..................        ..............",
"...............        ...................        ..............",
"...............        ....................       ..............",
"................       ....................      ...............",
"................      ......................     ...............",
"................      ......................     ...............",
".................    ........................   ................",
"................................................................",
"................................................................",
"................................................................",
"................................................................"
};
